<?xml version="1.0" encoding="iso-8859-1"?>
<!-- Generator: Adobe Illustrator 19.0.0, SVG Export Plug-In . SVG Version: 6.00 Build 0)  -->
<svg version="1.1" id="Layer_1" xmlns="http://www.w3.org/2000/svg" xmlns:xlink="http://www.w3.org/1999/xlink" x="0px" y="0px"
	 viewBox="0 0 511.999 511.999" style="enable-background:new 0 0 511.999 511.999;" xml:space="preserve">
<path style="fill:#2A5637;" d="M440.265,343.961c10.051,0,18.199-8.148,18.199-18.199v-77.649c0-10.051-8.148-18.199-18.199-18.199
	s-18.199,8.148-18.199,18.199v77.649C422.066,335.813,430.215,343.961,440.265,343.961z"/>
<path style="fill:#4E7F4B;" d="M440.265,343.961V229.913c-9.706,0-18.199,8.148-18.199,18.199v77.649
	C422.066,335.813,430.559,343.961,440.265,343.961z"/>
<path style="fill:#007AB7;" d="M255.697,411.904c10.051,0,18.199-8.148,18.199-18.199V302.71c0-10.051-8.148-18.199-18.199-18.199
	s-18.199,8.148-18.199,18.199v90.995C237.498,403.756,245.646,411.904,255.697,411.904z"/>
<path style="fill:#0EABD9;" d="M255.697,411.904V284.511c-10.051,0-18.199,8.148-18.199,18.199v90.995
	C237.498,403.756,245.646,411.904,255.697,411.904z"/>
<path style="fill:#91C0F1;" d="M448.698,144.985H292.095c-10.051,0-18.199-8.148-18.199-18.199c0-10.051,8.148-18.199,18.199-18.199
	h148.792C423.923,50.622,370.286,8.164,306.91,8.164c-41.652,0-80.673,18.465-107.067,50.044c-8.615-2.672-17.676-4.081-26.91-4.081
	c-1.269,0-2.507,0.132-3.703,0.379c-47.373,2.067-85.468,40.574-86.945,88.168C36.51,145.042,0,182.995,0,229.307
	c0,47.833,38.951,86.749,86.826,86.749h338.346c47.877,0,86.826-39.104,86.826-87.169c0-22.638-8.652-44.112-24.36-60.465
	C476.784,157.121,463.376,149.123,448.698,144.985z"/>
<path style="fill:#D7EDF3;" d="M254.635,18.561c-21.839,8.527-39.766,22.051-54.473,39.647c-8.615-2.672-17.835-4.081-27.069-4.081
	c-1.269,0-2.587,0.132-3.783,0.379c-47.373,2.067-85.508,40.574-86.985,88.168c-45.774,2.368-82.305,40.322-82.305,86.634
	c0,47.833,38.93,86.749,86.807,86.749h167.809V18.561z"/>
<path style="fill:#91C0F1;" d="M93.854,339.306c-7.106-7.107-18.63-7.107-25.737,0l-3.511,3.511l-3.511-3.511
	c-7.106-7.107-18.63-7.107-25.737,0c-7.107,7.107-7.107,18.63,0,25.737l3.511,3.511l-3.511,3.511c-7.107,7.107-7.107,18.63,0,25.737
	c3.554,3.554,8.211,5.331,12.868,5.331s9.315-1.776,12.868-5.331l3.511-3.511l3.511,3.511c3.554,3.554,8.211,5.331,12.868,5.331
	s9.315-1.776,12.868-5.331c7.107-7.107,7.107-18.63,0-25.737l-3.511-3.511l3.511-3.511
	C100.962,357.935,100.962,346.413,93.854,339.306z"/>
<path style="fill:#D7EDF3;" d="M64.607,342.817l-3.511-3.511c-7.106-7.107-18.63-7.107-25.737,0c-7.107,7.107-7.107,18.63,0,25.737
	l3.511,3.511l-3.511,3.511c-7.107,7.107-7.107,18.63,0,25.737c3.554,3.554,8.211,5.331,12.868,5.331s9.315-1.776,12.868-5.331
	l3.511-3.511v-51.474H64.607z"/>
<path style="fill:#91C0F1;" d="M285.55,440.007c-7.106-7.107-18.63-7.107-25.737,0l-3.511,3.511l-3.511-3.511
	c-7.106-7.107-18.63-7.107-25.737,0c-7.107,7.107-7.107,18.63,0,25.737l3.511,3.511l-3.511,3.511c-7.107,7.107-7.107,18.63,0,25.737
	c3.554,3.554,8.211,5.331,12.868,5.331c4.657,0,9.315-1.776,12.868-5.331l3.511-3.511l3.511,3.511
	c3.554,3.554,8.211,5.331,12.868,5.331c4.657,0,9.315-1.776,12.868-5.331c7.107-7.107,7.107-18.63,0-25.737l-3.511-3.511
	l3.511-3.511C292.659,458.637,292.659,447.114,285.55,440.007z"/>
<path style="fill:#D7EDF3;" d="M256.303,443.518l-3.511-3.511c-7.106-7.107-18.63-7.107-25.737,0c-7.107,7.107-7.107,18.63,0,25.737
	l3.511,3.511l-3.511,3.511c-7.107,7.107-7.107,18.63,0,25.737c3.554,3.554,8.211,5.331,12.868,5.331s9.315-1.776,12.868-5.331
	l3.511-3.511v-51.474H256.303z"/>
<path style="fill:#0EABD9;" d="M468.754,393.903c-7.106-7.107-18.63-7.107-25.737,0l-3.511,3.511l-3.511-3.511
	c-7.106-7.107-18.63-7.107-25.737,0s-7.107,18.63,0,25.737l3.511,3.511l-3.511,3.511c-7.107,7.107-7.107,18.63,0,25.737
	c3.554,3.554,8.211,5.331,12.868,5.331c4.657,0,9.315-1.776,12.868-5.331l3.511-3.511l3.511,3.511
	c3.554,3.554,8.211,5.331,12.868,5.331c4.656,0,9.315-1.776,12.868-5.331c7.107-7.107,7.107-18.63,0-25.737l-3.511-3.511
	l3.511-3.511C475.863,412.532,475.863,401.01,468.754,393.903z"/>
<path style="fill:#91C0F1;" d="M439.507,397.414l-3.511-3.511c-7.106-7.107-18.63-7.107-25.737,0s-7.107,18.63,0,25.737l3.511,3.511
	l-3.511,3.511c-7.107,7.107-7.107,18.63,0,25.737c3.554,3.554,8.211,5.331,12.868,5.331c4.657,0,9.316-1.776,12.868-5.331
	l3.511-3.511v-51.474H439.507z"/>
<path style="fill:#007AB7;" d="M369.744,360.947c10.051,0,18.199-8.148,18.199-18.199v-90.995c0-10.051-8.148-18.199-18.199-18.199
	c-10.051,0-18.199,8.148-18.199,18.199v90.995C351.545,352.798,359.693,360.947,369.744,360.947z"/>
<path style="fill:#0EABD9;" d="M369.744,360.947V233.553c-10.051,0-18.199,8.148-18.199,18.199v90.995
	C351.545,352.798,359.693,360.947,369.744,360.947z"/>
<path style="fill:#D7EDF3;" d="M380.664,228.7h-23.052c-10.051,0-18.199,8.148-18.199,18.199c0,10.051,8.148,18.199,18.199,18.199
	h23.052c10.051,0,18.199-8.148,18.199-18.199C398.863,236.848,390.714,228.7,380.664,228.7z"/>
<path style="fill:#FFFFFF;" d="M369.896,228.7h-12.284c-10.051,0-18.199,8.148-18.199,18.199c0,10.051,8.148,18.199,18.199,18.199
	h12.284V228.7z"/>
<path style="fill:#2A5637;" d="M167.28,365.8c10.051,0,18.199-8.148,18.199-18.199v-77.649c0-10.051-8.148-18.199-18.199-18.199
	c-10.051,0-18.199,8.148-18.199,18.199v77.649C149.081,357.651,157.229,365.8,167.28,365.8z"/>
<path style="fill:#4E7F4B;" d="M167.28,365.8V251.752c-9.706,0-18.199,8.148-18.199,18.199v77.649
	C149.081,357.651,157.573,365.8,167.28,365.8z"/>
<path style="fill:#91C0F1;" d="M178.047,246.899h-23.052c-10.051,0-18.199,8.148-18.199,18.199c0,10.051,8.148,18.199,18.199,18.199
	h23.052c10.051,0,18.199-8.148,18.199-18.199C196.246,255.048,188.098,246.899,178.047,246.899z"/>
<path style="fill:#FFFFFF;" d="M167.28,246.899h-12.284c-10.051,0-18.199,8.148-18.199,18.199c0,10.051,8.148,18.199,18.199,18.199
	h12.284V246.899z"/>
<g>
</g>
<g>
</g>
<g>
</g>
<g>
</g>
<g>
</g>
<g>
</g>
<g>
</g>
<g>
</g>
<g>
</g>
<g>
</g>
<g>
</g>
<g>
</g>
<g>
</g>
<g>
</g>
<g>
</g>
</svg>
